<svg xmlns="http://www.w3.org/2000/svg" width="30.321" height="22.26" viewBox="0 0 30.321 22.26">
  <path id="discord" d="M25.889,26.293q-.607.148-1.222.262a17.818,17.818,0,0,1-6.723-.025q-.583-.114-1.648-.4l-2.324,3.021c-5.737-.184-7.917-4.028-7.917-4.028A36.064,36.064,0,0,1,9.793,9.674a12.674,12.674,0,0,1,7.294-2.781L18.1,8.218a2.826,2.826,0,0,1,.283-.025,21.52,21.52,0,0,1,5.84.025l1.116-1.325a12.662,12.662,0,0,1,7.294,2.784,36.027,36.027,0,0,1,3.74,15.448s-2.208,3.841-7.945,4.028l-2.541-2.862ZM16.2,17.258a2.618,2.618,0,0,0-2.716,2.524A2.634,2.634,0,0,0,16.2,22.306a2.53,2.53,0,1,0,0-5.048Zm9.712,0A2.617,2.617,0,0,0,23.2,19.782a2.722,2.722,0,0,0,5.429,0A2.618,2.618,0,0,0,25.915,17.258Z" transform="translate(-6.055 -6.893)" fill="#ff8434"/>
</svg>
