<svg xmlns="http://www.w3.org/2000/svg" width="27.823" height="22.259" viewBox="0 0 27.823 22.259">
  <path id="youtube" d="M29.188,7.475a43.208,43.208,0,0,1,.636,7.654,43.207,43.207,0,0,1-.636,7.654,3.911,3.911,0,0,1-2.7,2.813c-2.378.662-10.58.662-10.58.662s-8.2,0-10.58-.662a3.91,3.91,0,0,1-2.7-2.813A43.208,43.208,0,0,1,2,15.129a43.208,43.208,0,0,1,.636-7.654,3.911,3.911,0,0,1,2.7-2.813C7.714,4,15.912,4,15.912,4s8.2,0,10.58.662A3.91,3.91,0,0,1,29.188,7.475ZM13.129,20l8.347-4.869L13.129,10.26Z" transform="translate(-2 -4)" fill="#ff8434"/>
</svg>
