<svg xmlns="http://www.w3.org/2000/svg" width="27.82" height="27.82" viewBox="0 0 27.82 27.82">
  <path id="instagram" d="M15.91,2c3.779,0,4.251.014,5.734.083a10.247,10.247,0,0,1,3.377.647,6.782,6.782,0,0,1,2.465,1.6A6.827,6.827,0,0,1,29.09,6.8a10.276,10.276,0,0,1,.647,3.377c.065,1.483.083,1.954.083,5.734s-.014,4.251-.083,5.734a10.283,10.283,0,0,1-.647,3.377,7.1,7.1,0,0,1-4.069,4.069,10.276,10.276,0,0,1-3.377.647c-1.483.065-1.954.083-5.734.083s-4.251-.014-5.734-.083A10.283,10.283,0,0,1,6.8,29.09,7.1,7.1,0,0,1,2.73,25.021a10.24,10.24,0,0,1-.647-3.377C2.018,20.161,2,19.689,2,15.91s.014-4.251.083-5.734A10.24,10.24,0,0,1,2.73,6.8a6.788,6.788,0,0,1,1.6-2.465A6.812,6.812,0,0,1,6.8,2.73a10.24,10.24,0,0,1,3.377-.647C11.659,2.018,12.131,2,15.91,2Zm0,6.955a6.955,6.955,0,1,0,6.955,6.955A6.955,6.955,0,0,0,15.91,8.955Zm9.042-.348a1.739,1.739,0,1,0-1.739,1.739A1.739,1.739,0,0,0,24.952,8.607Zm-9.042,3.13a4.173,4.173,0,1,1-4.173,4.173A4.173,4.173,0,0,1,15.91,11.737Z" transform="translate(-2 -2)" fill="#ff8434"/>
</svg>
