<svg xmlns="http://www.w3.org/2000/svg" width="27.82" height="27.82" viewBox="0 0 27.82 27.82">
  <path id="reddit" d="M15.91,29.82A13.91,13.91,0,1,1,29.82,15.91,13.91,13.91,0,0,1,15.91,29.82Zm9.278-13.91a2.031,2.031,0,0,0-3.436-1.391A9.9,9.9,0,0,0,16.4,12.808l.9-4.34,2.977.626a1.391,1.391,0,1,0,.181-.849l-3.408-.682a.431.431,0,0,0-.515.334l-1.029,4.827a9.932,9.932,0,0,0-5.425,1.711,2.031,2.031,0,1,0-2.24,3.324,3.992,3.992,0,0,0,0,.612c0,3.116,3.631,5.647,8.11,5.647s8.11-2.532,8.11-5.647a3.992,3.992,0,0,0,0-.612,2.031,2.031,0,0,0,1.127-1.85ZM11.278,17.3a1.391,1.391,0,1,1,1.391,1.391A1.391,1.391,0,0,1,11.278,17.3Zm8.082,3.825A5.341,5.341,0,0,1,15.924,22.2a5.341,5.341,0,0,1-3.436-1.071.376.376,0,0,1,.529-.529,4.549,4.549,0,0,0,2.893.876,4.562,4.562,0,0,0,2.907-.849.389.389,0,1,1,.542.556v-.056Zm-.25-2.379a.663.663,0,1,1-.014.056Z" transform="translate(-2 -2)" fill="#ff8434"/>
</svg>
