<svg xmlns="http://www.w3.org/2000/svg" width="29.296" height="23.82" viewBox="0 0 29.296 23.82">
  <path id="twitter" d="M31.074,6.516a12.05,12.05,0,0,1-3.452.946,6.031,6.031,0,0,0,2.644-3.326A12.012,12.012,0,0,1,26.449,5.6a6.01,6.01,0,0,0-10.242,5.482A17.066,17.066,0,0,1,3.818,4.8a6.019,6.019,0,0,0,1.86,8.025,5.99,5.99,0,0,1-2.722-.752v.075a6.014,6.014,0,0,0,4.821,5.894,6.051,6.051,0,0,1-2.715.1,6.015,6.015,0,0,0,5.615,4.175,12.064,12.064,0,0,1-8.9,2.489,17,17,0,0,0,9.213,2.7c11.057,0,17.1-9.159,17.1-17.1,0-.259-.007-.52-.019-.776a12.211,12.211,0,0,0,3-3.112Z" transform="translate(-1.779 -3.688)" fill="#ff8434"/>
</svg>
